<?xml version="1.0" encoding="UTF-8"?>
<svg id="Layer_1" data-name="Layer 1" xmlns="http://www.w3.org/2000/svg" viewBox="0 0 1815.19 834.87">
  <defs>
    <style>
      .cls-1 {
        fill: #c75c25;
      }

      .cls-2 {
        fill: #ede2cf;
      }
    </style>
  </defs>
  <g>
    <path class="cls-1" d="M336.11,440.44l2.29,89.31c3.33,6.49,8.59,11.55,11.29,18.24,4.39,10.91,7.03,22.14,10.76,33.35,3.58,10.76,7.12,20.83,11.82,31.4l19.01-2.56,67.2-8.27c13.77-1.69,26.48-3.58,39.62-6.48,3.18-.7,5.84-1.63,8.5-3.77-2.26-2.06-4.22-3.08-6.78-3.86-11.9-3.62-23.95-5.9-36.6-7.47l-6.51-37.98c-1.93-11.26-3.47-22.07-4.94-33.34l-3.45-23.8-14.76-17.2-10.29,18.41,5.71-60.95c.44-4.7,3.75-8.7,5.04-13.32l-3.43-75.75-.47-54.64-2.43-7.78-.18-25.88-2.52-69.02-3.43-4.54-8.18-49.63-13.5-.04-39.42,28.71-5.71,54.92-2.22,20.72,3.98,7.68-2.73,62.65c-1.34-.54-.95-1.47-1.09-2.63l-7.05-57.1-12.21,7.38-3.43,18.29-5.4,15.08-11.23,88.8,1.59,47.99,21.13,23.07Z"/>
    <path class="cls-1" d="M394.62,659.42c.06-2.53-9.9-6.58-12.43-7.51l-30.21-11.11c-5.62-2.07-15.7-5.76-15.83-11.9-.14-6.88,11.46-11.15,17.28-12.42l15.88-3.47c-9.56-12.98-18.71-24.93-28.82-36.88-7.9-9.34-16.68-17.26-25.69-25.4l-5.59-70.06c-9.21-14.13-5.21-10.91-6.72-27.13l-6.72-72.27-13.46-7.29-6.35-49.96-12.44-.77c-5.78,5.34-11.43,9.67-17.7,13.8l-2.87,14.98c-1.02,5.32-4.14,10.22-4.7,15.64l-6.65,65.2-14.65,13.73-1.97,42.11-4.36,87.69-4.56,96.78,112.45-5.62,55.88-3.54c3.51-.68,20.15-.96,20.23-4.61Z"/>
    <path class="cls-1" d="M603.7,630.16c.06-.32-.6-12.31-.63-12.79l-3.82-70.44-5.48-12.79-8.77-57.04-32.07-29.52-10.04-76.75-4.65-3.66-19.89-18.41-6.92,1.38-1.53,35.19-1.42,44,14.14,20.46c.82,6.78,1.92,12.78,3.7,19.23l8.55,66.93c-5.78-17.43-9.95-34.85-14.62-52.56l-6.79-35-16.79-20.54-14.7-129.1-9.3-11.54-7.74-79.47-20.01-18.22c-1.21.11-2.56.48-3.54,1.02l-2.72,79.35,4.94,10.26.45,59.86,7.83,12.94,3.28,74.53,1.53,54.97,10.35,16.46,2.53,49.05c.47,9.04,1.64,17.4,3.29,26.19l39.91,6.69c8.25,1.38,16.12,3.32,23.91,5.9,2.75.91,5.8,2.21,6.06,5.08,0,.01,0,.03,0,.04.28,3.41-1.74,6.6-4.91,7.9l-1.59.65-.04-.02c-10.46,3.8-20.29,7.08-31.21,9.48l-76.94,15.15c-4.77.94-18.5,4.13-18.2,9.7.06,1.21,1.46,3.32,2.77,3.97,5.25,2.6,10.22,4.58,15.7,6.68,11.37,4.38,22.5,8.41,33.55,13.52,4.79,2.21,9.22,4.96,12.52,9.19,2.63,3.38,1.97,7.21-.59,10.04-2.77,3.06-6.49,4.76-10.35,6.53-8.55,3-16.92,5.05-25.88,7.12-20.42,4.71-40.57,8.51-61.15,14.63l232.14.12-4.86-76.38Z"/>
  </g>
  <g>
    <g>
      <path class="cls-2" d="M669.14,631.43c7.24-16.75,9.96-26.25,9.96-49.33v-66.08c0-23.08-2.71-32.59-9.96-49.33v-.45h60.65v.45c-7.24,16.75-9.96,26.7-9.96,49.11v66.53c0,22.4,2.72,32.36,9.96,49.11v.45h-60.65v-.45Z"/>
      <path class="cls-2" d="M767.8,498.82l.9,82.14c0,23.08,5.66,33.04,18.56,50.46v.45h-45.94v-.45c13.12-17.42,18.33-26.93,18.33-50.69v-70.38c0-21.27-4.98-29.42-17.88-43.68v-.45h52.05l83.5,104.1-.23-52.73c-.23-23.76-5.2-33.26-18.1-50.92v-.45h45.03v.45c-12.45,17.43-17.88,27.38-17.88,50.46v114.5l-10.41.9-107.94-133.74Z"/>
      <path class="cls-2" d="M1041.15,631.88h-77.62v-.45c7.24-16.75,9.96-26.25,9.96-49.33v-66.08c0-23.08-2.72-32.59-9.96-49.33v-.45c11.31,0,68.79-.23,74.9-.23,44.81-.23,58.16,16.97,58.16,38.02,0,16.75-8.15,34.17-35.98,41.18,31,5.43,43.45,21.95,43.45,42.54,0,26.48-18.33,44.13-62.91,44.13ZM1028.48,541.82c21.72,0,28.97-17.88,28.97-34.85,0-18.1-7.47-33.49-30.1-33.49-4.98,0-9.05.45-13.12.91v67.43h14.26ZM1061.74,586.85c0-20.82-7.92-37.34-32.59-37.34h-14.94v74.22c3.85.68,8.6,1.13,13.58,1.13,23.76,0,33.94-16.07,33.94-38.02Z"/>
      <path class="cls-2" d="M1120.57,631.43c6.56-16.75,9.73-26.48,9.73-48.43v-67.89c0-21.95-3.17-31.68-9.73-48.43v-.45h118.35l8.83,45.26-3.62,1.13c-11.99-11.77-31-36.43-43.22-37.56l-29.87-2.04v70.83h13.58c12.22,0,23.31-14.03,31-22.63h3.85v53.86h-3.85c-7.47-8.15-18.56-23.31-31.45-23.31h-13.13v73.32l33.49-1.81c15.84-.68,39.37-30.1,51.14-46.62l3.85,1.13-12.22,54.08h-126.72v-.45Z"/>
      <path class="cls-2" d="M1293.23,498.82l.91,82.14c0,23.08,5.66,33.04,18.56,50.46v.45h-45.94v-.45c13.12-17.42,18.33-26.93,18.33-50.69v-70.38c0-21.27-4.98-29.42-17.88-43.68v-.45h52.05l83.5,104.1-.23-52.73c-.23-23.76-5.2-33.26-18.1-50.92v-.45h45.03v.45c-12.45,17.43-17.88,27.38-17.88,50.46v114.5l-10.41.9-107.94-133.74Z"/>
      <path class="cls-2" d="M1442.13,631.43c7.24-16.07,9.96-25.12,9.96-47.29v-70.15c0-22.18-2.72-31.23-9.96-47.3v-.45c25.57,0,37.34-.91,67.66-.91,61.33,0,99.34,29.19,99.34,83.05s-36.21,83.5-99.34,83.5h-67.66v-.45ZM1510.25,473.47c-2.94,0-11.09.45-17.43,1.13v148.22c7.24.68,16.52.9,19.24.9,41.64-.23,52.95-26.7,52.95-72.87,0-52.73-14.48-77.62-54.76-77.39Z"/>
    </g>
    <g>
      <path class="cls-2" d="M762.35,435.42h-93.21v-.54c8.7-20.11,11.96-31.52,11.96-59.24v-79.35c0-27.72-3.26-39.13-11.96-59.24v-.54c13.59,0,82.61-.27,89.95-.27,53.81-.27,69.84,20.38,69.84,45.65,0,20.11-9.78,41.03-43.21,49.46,37.23,6.52,52.18,26.36,52.18,51.09,0,31.8-22.01,52.99-75.55,52.99ZM747.13,327.27c26.09,0,34.78-21.47,34.78-41.85,0-21.74-8.97-40.22-36.14-40.22-5.98,0-10.87.54-15.76,1.09v80.98h17.12ZM787.08,381.34c0-25-9.51-44.84-39.13-44.84h-17.94v89.13c4.62.82,10.33,1.36,16.3,1.36,28.53,0,40.76-19.29,40.76-45.65Z"/>
      <path class="cls-2" d="M842.24,435.42v-.54c11.69-11.14,20.92-28.53,29.08-50.82l53.81-148.38h30.44l54.35,149.74c7.61,21.2,15.76,37.77,25.54,49.46v.54h-81.52v-.54c9.78-12.5,13.04-30.98,4.89-54.35l-6.25-17.66h-63.59l-3.8,10.87c-11.14,30.71-4.08,50.55,10.33,61.14v.54h-53.26ZM949.31,353.63l-27.99-79.9-28.81,79.9h56.8Z"/>
      <path class="cls-2" d="M1071.33,275.63l1.09,98.65c0,27.72,6.79,39.68,22.28,60.6v.54h-55.17v-.54c15.76-20.92,22.01-32.34,22.01-60.87v-84.51c0-25.54-5.98-35.33-21.47-52.45v-.54h62.5l100.28,125.01-.27-63.32c-.27-28.53-6.25-39.95-21.74-61.14v-.54h54.08v.54c-14.95,20.92-21.47,32.88-21.47,60.6v137.51l-12.5,1.09-129.63-160.61Z"/>
      <path class="cls-2" d="M1250.15,434.88c8.7-19.29,11.96-30.16,11.96-56.8v-84.24c0-26.63-3.26-37.5-11.96-56.8v-.54c30.71,0,44.84-1.09,81.25-1.09,73.64,0,119.3,35.06,119.3,99.73s-43.48,100.28-119.3,100.28h-81.25v-.54ZM1331.94,245.2c-3.53,0-13.32.54-20.92,1.36v178c8.7.82,19.84,1.09,23.1,1.09,50-.27,63.59-32.07,63.59-87.5,0-63.32-17.39-93.21-65.76-92.94Z"/>
      <path class="cls-2" d="M1596.36,288.95l-4.62,1.36c-20.38-33.15-38.05-48.64-59.24-48.64-16.31,0-27.72,9.51-27.72,24.19,0,21.2,24.19,30.98,49.46,43.21,26.9,13.59,54.89,29.89,54.89,69.03,0,44.84-35.6,61.42-75.55,61.42-22.55,0-44.84-5.43-59.24-12.23l-7.34-55.98,4.35-1.36c25.54,42.12,45.38,60.6,70.66,60.6,20.38,0,32.34-12.77,32.34-29.62,0-23.37-22.83-34.51-47.56-46.47-27.45-13.59-55.71-28.26-55.71-64.68,0-41.85,36.14-57.34,75-57.34,15.22,0,30.16,2.45,43.21,6.52l7.07,50Z"/>
    </g>
  </g>
  <g>
    <g>
      <path class="cls-1" d="M841.32,704.94h16.24v4.61h-21.7v-38.03h5.46v33.42Z"/>
      <path class="cls-1" d="M878.08,709.55h-5.49v-38.03h5.49v38.03Z"/>
      <path class="cls-1" d="M892.79,671.52h4.37c.48,0,.87.12,1.18.36.31.24.53.55.68.94l10.44,26.16c.25.62.48,1.3.7,2.05.22.75.43,1.53.62,2.34.18-.81.37-1.59.57-2.34s.43-1.44.68-2.05l10.41-26.16c.11-.34.32-.64.65-.9s.72-.4,1.18-.4h4.4l-15.48,38.03h-4.93l-15.48-38.03Z"/>
      <path class="cls-1" d="M966.91,671.52v4.45h-18.05v12.24h14.55v4.29h-14.55v12.59h18.07l-.03,4.45h-23.53v-38.03h23.53Z"/>
      <path class="cls-1" d="M1028.62,698.31c.19-.51.39-1.01.6-1.5.2-.49.43-.96.68-1.42l12.61-22.95c.23-.44.48-.71.76-.79.27-.09.65-.13,1.13-.13h4.05v38.03h-4.8v-27.35c0-.39,0-.8.03-1.25.02-.44.04-.89.08-1.35l-12.77,23.37c-.19.41-.46.72-.81.93-.34.21-.73.32-1.15.32h-.77c-.9,0-1.56-.42-1.99-1.25l-13.04-23.48c.04.48.07.95.11,1.4.04.46.05.89.05,1.3v27.35h-4.8v-38.03h4.05c.48,0,.85.04,1.13.13.27.09.53.35.76.79l12.85,23c.44.88.86,1.84,1.25,2.86Z"/>
      <path class="cls-1" d="M1082.45,705.18c1.54,0,2.91-.26,4.12-.78,1.21-.52,2.23-1.25,3.07-2.19.84-.94,1.48-2.05,1.92-3.35.44-1.3.66-2.73.66-4.31v-23.03h5.46v23.03c0,2.21-.35,4.26-1.06,6.15-.71,1.89-1.71,3.52-3.02,4.9s-2.91,2.46-4.8,3.23c-1.89.78-4.01,1.17-6.36,1.17s-4.49-.39-6.37-1.17-3.48-1.85-4.8-3.23c-1.32-1.38-2.33-3.01-3.03-4.9-.71-1.89-1.06-3.94-1.06-6.15v-23.03h5.46v23.03c0,1.55.22,2.98.66,4.28.44,1.3,1.08,2.42,1.92,3.37.84.95,1.87,1.68,3.09,2.2,1.22.52,2.6.78,4.13.78Z"/>
      <path class="cls-1" d="M1135.57,677.64c-.16.28-.33.49-.52.62s-.43.2-.73.2c-.32,0-.68-.15-1.09-.44-.41-.29-.91-.62-1.52-.98-.61-.36-1.34-.69-2.19-.98-.85-.29-1.86-.44-3.05-.44s-2.12.15-2.98.44c-.86.29-1.57.69-2.15,1.21-.57.51-1.01,1.12-1.3,1.82-.29.7-.44,1.45-.44,2.27,0,1.04.26,1.9.78,2.57.52.67,1.21,1.25,2.05,1.74.85.49,1.81.91,2.9,1.26,1.09.35,2.2.72,3.33,1.11,1.13.39,2.24.83,3.33,1.31s2.05,1.1,2.9,1.85c.85.75,1.53,1.67,2.05,2.76.52,1.09.78,2.42.78,3.99,0,1.68-.29,3.25-.86,4.7-.57,1.46-1.41,2.73-2.5,3.82-1.1,1.09-2.44,1.94-4.03,2.57s-3.4.94-5.43.94c-1.22,0-2.4-.12-3.54-.36-1.14-.24-2.22-.57-3.23-1.01-1.02-.43-1.97-.95-2.86-1.56-.89-.61-1.69-1.29-2.4-2.05l1.59-2.6c.14-.21.32-.38.54-.52.22-.13.46-.2.73-.2.37,0,.8.19,1.29.58s1.09.82,1.8,1.29c.72.47,1.58.9,2.58,1.29s2.23.58,3.66.58c1.18,0,2.24-.16,3.18-.48.94-.32,1.73-.77,2.37-1.35.64-.58,1.13-1.29,1.47-2.12.33-.83.5-1.75.5-2.76,0-1.13-.26-2.05-.78-2.77-.52-.72-1.21-1.31-2.05-1.79s-1.81-.88-2.89-1.22-2.19-.68-3.33-1.05-2.25-.78-3.33-1.26c-1.08-.48-2.04-1.1-2.89-1.87-.85-.77-1.53-1.73-2.05-2.88s-.78-2.57-.78-4.27c0-1.34.26-2.65.79-3.92.53-1.27,1.3-2.39,2.31-3.37,1.01-.97,2.25-1.75,3.72-2.34,1.48-.59,3.17-.89,5.08-.89,2.14,0,4.09.34,5.87,1.01,1.78.67,3.33,1.64,4.65,2.92l-1.35,2.62Z"/>
      <path class="cls-1" d="M1160.02,709.55h-5.49v-38.03h5.49v38.03Z"/>
      <path class="cls-1" d="M1206,701.49c.3,0,.57.12.79.34l2.17,2.39c-1.55,1.82-3.45,3.23-5.68,4.24-2.23,1.01-4.92,1.51-8.04,1.51-2.76,0-5.25-.48-7.49-1.43-2.24-.95-4.14-2.29-5.72-4-1.58-1.71-2.8-3.76-3.66-6.15-.86-2.38-1.29-5.01-1.29-7.87s.45-5.49,1.35-7.87c.9-2.38,2.17-4.43,3.82-6.13s3.61-3.03,5.9-3.99c2.29-.95,4.81-1.43,7.57-1.43s5.1.44,7.2,1.32c2.09.88,3.92,2.06,5.47,3.53l-1.8,2.54c-.12.18-.27.32-.44.44-.17.12-.4.17-.7.17-.34,0-.73-.17-1.18-.5-.45-.33-1.04-.71-1.78-1.13s-1.65-.79-2.74-1.13c-1.1-.34-2.45-.5-4.05-.5-1.91,0-3.66.34-5.26,1.01-1.6.67-2.97,1.63-4.12,2.89-1.15,1.25-2.04,2.79-2.68,4.61s-.95,3.88-.95,6.17.33,4.41.99,6.24c.66,1.83,1.57,3.37,2.73,4.62,1.16,1.25,2.52,2.21,4.09,2.88,1.57.66,3.26.99,5.06.99,1.11,0,2.11-.07,3-.2.88-.13,1.7-.33,2.45-.6.75-.26,1.45-.61,2.11-1.03.65-.42,1.31-.93,1.96-1.51.14-.12.29-.23.44-.3.15-.08.31-.12.49-.12Z"/>
      <path class="cls-1" d="M1274.22,708.95c-2.16.68-4.53,1.02-7.09,1.02-3.06,0-5.82-.48-8.29-1.43-2.47-.95-4.58-2.29-6.33-4-1.75-1.71-3.1-3.76-4.04-6.15s-1.42-5.01-1.42-7.87.46-5.51,1.37-7.9c.91-2.38,2.21-4.43,3.91-6.15,1.7-1.71,3.75-3.04,6.15-3.97s5.1-1.4,8.08-1.4c1.52,0,2.93.12,4.23.34,1.3.23,2.5.55,3.6.97s2.13.92,3.07,1.51,1.82,1.26,2.61,2l-1.54,2.49c-.25.39-.57.63-.97.73-.4.1-.83,0-1.29-.28-.46-.27-.97-.57-1.52-.92-.56-.34-1.22-.67-1.99-.98-.77-.31-1.67-.57-2.7-.79-1.03-.22-2.27-.33-3.7-.33-2.1,0-4,.34-5.7,1.03-1.7.69-3.14,1.67-4.33,2.94-1.19,1.27-2.11,2.81-2.76,4.62-.64,1.81-.97,3.84-.97,6.08,0,2.37.33,4.48,1.01,6.33.67,1.85,1.63,3.43,2.88,4.72,1.25,1.29,2.76,2.28,4.53,2.96s3.76,1.02,5.95,1.02c.85,0,1.65-.05,2.4-.15.75-.1,1.47-.24,2.15-.42.68-.19,1.34-.41,1.97-.68s1.27-.56,1.91-.87v-8.14h-5.7c-.35,0-.64-.1-.86-.3-.22-.2-.33-.46-.33-.76v-3.1h11.84v14.73c-1.93,1.38-3.97,2.41-6.13,3.09Z"/>
      <path class="cls-1" d="M1312.73,705.18c1.54,0,2.91-.26,4.12-.78,1.21-.52,2.23-1.25,3.07-2.19.84-.94,1.48-2.05,1.92-3.35.44-1.3.66-2.73.66-4.31v-23.03h5.46v23.03c0,2.21-.35,4.26-1.06,6.15-.71,1.89-1.71,3.52-3.02,4.9s-2.91,2.46-4.8,3.23c-1.89.78-4.01,1.17-6.36,1.17s-4.49-.39-6.37-1.17-3.48-1.85-4.8-3.23c-1.32-1.38-2.33-3.01-3.03-4.9-.71-1.89-1.06-3.94-1.06-6.15v-23.03h5.46v23.03c0,1.55.22,2.98.66,4.28.44,1.3,1.08,2.42,1.92,3.37.84.95,1.87,1.68,3.09,2.2,1.22.52,2.6.78,4.13.78Z"/>
      <path class="cls-1" d="M1352.22,709.55h-5.49v-38.03h5.49v38.03Z"/>
      <path class="cls-1" d="M1404.4,690.52c0,2.84-.46,5.44-1.36,7.78-.91,2.34-2.19,4.35-3.84,6.02-1.65,1.67-3.63,2.96-5.95,3.87-2.31.91-4.88,1.37-7.68,1.37h-14.26v-38.03h14.26c2.81,0,5.37.46,7.68,1.38s4.3,2.21,5.95,3.87c1.65,1.66,2.93,3.66,3.84,6,.91,2.34,1.36,4.92,1.36,7.75ZM1398.81,690.52c0-2.28-.31-4.32-.93-6.13-.62-1.81-1.51-3.34-2.66-4.58-1.16-1.25-2.55-2.2-4.19-2.86-1.63-.66-3.46-.99-5.47-.99h-8.77v29.18h8.77c2.01,0,3.84-.33,5.47-.99,1.63-.66,3.03-1.62,4.19-2.86,1.16-1.25,2.04-2.77,2.66-4.58.62-1.81.93-3.86.93-6.16Z"/>
      <path class="cls-1" d="M1444.85,671.52v4.45h-18.05v12.24h14.55v4.29h-14.55v12.59h18.07l-.03,4.45h-23.53v-38.03h23.53Z"/>
    </g>
    <rect class="cls-1" x="1469.74" y="688.24" width="37.91" height="4.35"/>
    <rect class="cls-1" x="770.62" y="688.24" width="37.91" height="4.35"/>
  </g>
</svg>