<svg xmlns="http://www.w3.org/2000/svg" viewBox="36 45 742 742">
  <rect x="36" y="45" width="742" height="742" rx="150" fill="#161410"/>
  <g fill="#E8632A">
    <path d="M336.11,440.44l2.29,89.31c3.33,6.49,8.59,11.55,11.29,18.24,4.39,10.91,7.03,22.14,10.76,33.35,3.58,10.76,7.12,20.83,11.82,31.4l19.01-2.56,67.2-8.27c13.77-1.69,26.48-3.58,39.62-6.48,3.18-.7,5.84-1.63,8.5-3.77-2.26-2.06-4.22-3.08-6.78-3.86-11.9-3.62-23.95-5.9-36.6-7.47l-6.51-37.98c-1.93-11.26-3.47-22.07-4.94-33.34l-3.45-23.8-14.76-17.2-10.29,18.41,5.71-60.95c.44-4.7,3.75-8.7,5.04-13.32l-3.43-75.75-.47-54.64-2.43-7.78-.18-25.88-2.52-69.02-3.43-4.54-8.18-49.63-13.5-.04-39.42,28.71-5.71,54.92-2.22,20.72,3.98,7.68-2.73,62.65c-1.34-.54-.95-1.47-1.09-2.63l-7.05-57.1-12.21,7.38-3.43,18.29-5.4,15.08-11.23,88.8,1.59,47.99,21.13,23.07Z"/>
    <path d="M394.62,659.42c.06-2.53-9.9-6.58-12.43-7.51l-30.21-11.11c-5.62-2.07-15.7-5.76-15.83-11.9-.14-6.88,11.46-11.15,17.28-12.42l15.88-3.47c-9.56-12.98-18.71-24.93-28.82-36.88-7.9-9.34-16.68-17.26-25.69-25.4l-5.59-70.06c-9.21-14.13-5.21-10.91-6.72-27.13l-6.72-72.27-13.46-7.29-6.35-49.96-12.44-.77c-5.78,5.34-11.43,9.67-17.7,13.8l-2.87,14.98c-1.02,5.32-4.14,10.22-4.7,15.64l-6.65,65.2-14.65,13.73-1.97,42.11-4.36,87.69-4.56,96.78,112.45-5.62,55.88-3.54c3.51-.68,20.15-.96,20.23-4.61Z"/>
    <path d="M603.7,630.16c.06-.32-.6-12.31-.63-12.79l-3.82-70.44-5.48-12.79-8.77-57.04-32.07-29.52-10.04-76.75-4.65-3.66-19.89-18.41-6.92,1.38-1.53,35.19-1.42,44,14.14,20.46c.82,6.78,1.92,12.78,3.7,19.23l8.55,66.93c-5.78-17.43-9.95-34.85-14.62-52.56l-6.79-35-16.79-20.54-14.7-129.1-9.3-11.54-7.74-79.47-20.01-18.22c-1.21.11-2.56.48-3.54,1.02l-2.72,79.35,4.94,10.26.45,59.86,7.83,12.94,3.28,74.53,1.53,54.97,10.35,16.46,2.53,49.05c.47,9.04,1.64,17.4,3.29,26.19l39.91,6.69c8.25,1.38,16.12,3.32,23.91,5.9,2.75.91,5.8,2.21,6.06,5.08,0,.01,0,.03,0,.04.28,3.41-1.74,6.6-4.91,7.9l-1.59.65-.04-.02c-10.46,3.8-20.29,7.08-31.21,9.48l-76.94,15.15c-4.77.94-18.5,4.13-18.2,9.7.06,1.21,1.46,3.32,2.77,3.97,5.25,2.6,10.22,4.58,15.7,6.68,11.37,4.38,22.5,8.41,33.55,13.52,4.79,2.21,9.22,4.96,12.52,9.19,2.63,3.38,1.97,7.21-.59,10.04-2.77,3.06-6.49,4.76-10.35,6.53-8.55,3-16.92,5.05-25.88,7.12-20.42,4.71-40.57,8.51-61.15,14.63l232.14.12-4.86-76.38Z"/>
  </g>
</svg>
